<svg width="257" height="70" viewBox="0 0 257 70" xmlns="http://www.w3.org/2000/svg">
  <g fill="none" fill-rule="evenodd">
    <path fill="#0C2340" d="M76.262 40.446h7.289v28.422h-7.289zM145.87 64.86h7.29v4.008h-7.29zM7.018 40.446h7.29v28.422h-7.29z"/>
    <path fill="#FFD119" d="M105.417 0h7.29v68.868h-7.29zM36.174 0h7.288v68.868h-7.288zm138.852 0h7.288v68.868h-7.288zm68.879 0h7.289v68.868h-7.29z"/>
    <path fill="#5B7381" d="M98.129 37.167h7.288v31.7H98.13z"/>
    <path fill="#ABB0B2" d="M90.84 44.09h7.289v24.778h-7.29z"/>
    <path fill="#DAE0E2" d="M83.551 45.912h7.289v22.956h-7.29z"/>
    <path fill="#5B7381" d="M28.885 37.167h7.289v31.7h-7.29z"/>
    <path fill="#ABB0B2" d="M21.596 44.09h7.289v24.778h-7.289z"/>
    <path fill="#DAE0E2" d="M14.307 45.912h7.289v22.956h-7.289z"/>
    <path fill="#5B7381" d="M167.737 37.167h7.289v31.7h-7.29z"/>
    <path fill="#ABB0B2" d="M160.448 44.09h7.289v24.778h-7.289z"/>
    <path fill="#DAE0E2" d="M153.16 45.912h7.288v22.956h-7.289z"/>
    <path fill="#5B7381" d="M236.616 37.167h7.289v31.7h-7.289z"/>
    <path fill="#ABB0B2" d="M229.327 44.09h7.29v24.778h-7.29z"/>
    <path fill="#DAE0E2" d="M222.038 45.912h7.29v22.956h-7.29z"/>
    <path d="M1.91 40.27h253.413v-1H1.91z" stroke="#1D272D"/>
  </g>
</svg>
