<svg width="241" height="75" viewBox="0 0 241 75" xmlns="http://www.w3.org/2000/svg">
  <defs>
    <filter x="-164.9%" y="-164.9%" width="439.7%" height="439.7%" filterUnits="objectBoundingBox" id="da74de0d8e3848839bb671f5b530d2b4a">
      <feOffset dy="1" in="SourceAlpha" result="shadowOffsetOuter1"/>
      <feGaussianBlur stdDeviation="2" in="shadowOffsetOuter1" result="shadowBlurOuter1"/>
      <feColorMatrix values="0 0 0 0 0 0 0 0 0 0 0 0 0 0 0 0 0 0 0.5 0" in="shadowBlurOuter1" result="shadowMatrixOuter1"/>
      <feMerge>
        <feMergeNode in="shadowMatrixOuter1"/>
        <feMergeNode in="SourceGraphic"/>
      </feMerge>
    </filter>
    <filter x="-164.9%" y="-164.9%" width="439.7%" height="439.7%" filterUnits="objectBoundingBox" id="da74de0d8e3848839bb671f5b530d2b4b">
      <feOffset dy="1" in="SourceAlpha" result="shadowOffsetOuter1"/>
      <feGaussianBlur stdDeviation="2" in="shadowOffsetOuter1" result="shadowBlurOuter1"/>
      <feColorMatrix values="0 0 0 0 0 0 0 0 0 0 0 0 0 0 0 0 0 0 0.5 0" in="shadowBlurOuter1" result="shadowMatrixOuter1"/>
      <feMerge>
        <feMergeNode in="shadowMatrixOuter1"/>
        <feMergeNode in="SourceGraphic"/>
      </feMerge>
    </filter>
    <filter x="-164.9%" y="-164.9%" width="439.7%" height="439.7%" filterUnits="objectBoundingBox" id="da74de0d8e3848839bb671f5b530d2b4c">
      <feOffset dy="1" in="SourceAlpha" result="shadowOffsetOuter1"/>
      <feGaussianBlur stdDeviation="2" in="shadowOffsetOuter1" result="shadowBlurOuter1"/>
      <feColorMatrix values="0 0 0 0 0 0 0 0 0 0 0 0 0 0 0 0 0 0 0.5 0" in="shadowBlurOuter1" result="shadowMatrixOuter1"/>
      <feMerge>
        <feMergeNode in="shadowMatrixOuter1"/>
        <feMergeNode in="SourceGraphic"/>
      </feMerge>
    </filter>
    <filter x="-164.9%" y="-164.9%" width="439.7%" height="439.7%" filterUnits="objectBoundingBox" id="da74de0d8e3848839bb671f5b530d2b4d">
      <feOffset dy="1" in="SourceAlpha" result="shadowOffsetOuter1"/>
      <feGaussianBlur stdDeviation="2" in="shadowOffsetOuter1" result="shadowBlurOuter1"/>
      <feColorMatrix values="0 0 0 0 0 0 0 0 0 0 0 0 0 0 0 0 0 0 0.5 0" in="shadowBlurOuter1" result="shadowMatrixOuter1"/>
      <feMerge>
        <feMergeNode in="shadowMatrixOuter1"/>
        <feMergeNode in="SourceGraphic"/>
      </feMerge>
    </filter>
    <filter x="-164.9%" y="-164.9%" width="439.7%" height="439.7%" filterUnits="objectBoundingBox" id="da74de0d8e3848839bb671f5b530d2b4e">
      <feOffset dy="1" in="SourceAlpha" result="shadowOffsetOuter1"/>
      <feGaussianBlur stdDeviation="2" in="shadowOffsetOuter1" result="shadowBlurOuter1"/>
      <feColorMatrix values="0 0 0 0 0 0 0 0 0 0 0 0 0 0 0 0 0 0 0.5 0" in="shadowBlurOuter1" result="shadowMatrixOuter1"/>
      <feMerge>
        <feMergeNode in="shadowMatrixOuter1"/>
        <feMergeNode in="SourceGraphic"/>
      </feMerge>
    </filter>
    <filter x="-164.9%" y="-164.9%" width="439.7%" height="439.7%" filterUnits="objectBoundingBox" id="da74de0d8e3848839bb671f5b530d2b4f">
      <feOffset dy="1" in="SourceAlpha" result="shadowOffsetOuter1"/>
      <feGaussianBlur stdDeviation="2" in="shadowOffsetOuter1" result="shadowBlurOuter1"/>
      <feColorMatrix values="0 0 0 0 0 0 0 0 0 0 0 0 0 0 0 0 0 0 0.5 0" in="shadowBlurOuter1" result="shadowMatrixOuter1"/>
      <feMerge>
        <feMergeNode in="shadowMatrixOuter1"/>
        <feMergeNode in="SourceGraphic"/>
      </feMerge>
    </filter>
    <filter x="-164.9%" y="-164.9%" width="439.7%" height="439.7%" filterUnits="objectBoundingBox" id="da74de0d8e3848839bb671f5b530d2b4g">
      <feOffset dy="1" in="SourceAlpha" result="shadowOffsetOuter1"/>
      <feGaussianBlur stdDeviation="2" in="shadowOffsetOuter1" result="shadowBlurOuter1"/>
      <feColorMatrix values="0 0 0 0 0 0 0 0 0 0 0 0 0 0 0 0 0 0 0.5 0" in="shadowBlurOuter1" result="shadowMatrixOuter1"/>
      <feMerge>
        <feMergeNode in="shadowMatrixOuter1"/>
        <feMergeNode in="SourceGraphic"/>
      </feMerge>
    </filter>
    <filter x="-164.9%" y="-164.9%" width="439.7%" height="439.7%" filterUnits="objectBoundingBox" id="da74de0d8e3848839bb671f5b530d2b4h">
      <feOffset dy="1" in="SourceAlpha" result="shadowOffsetOuter1"/>
      <feGaussianBlur stdDeviation="2" in="shadowOffsetOuter1" result="shadowBlurOuter1"/>
      <feColorMatrix values="0 0 0 0 0 0 0 0 0 0 0 0 0 0 0 0 0 0 0.5 0" in="shadowBlurOuter1" result="shadowMatrixOuter1"/>
      <feMerge>
        <feMergeNode in="shadowMatrixOuter1"/>
        <feMergeNode in="SourceGraphic"/>
      </feMerge>
    </filter>
  </defs>
  <g fill="none" fill-rule="evenodd">
    <path d="M149.524 19.906c.607 0 1.435-8.901 3.976-8.901 2.54 0 3.931 3.125 7.472 3.125 4.477 1.44 6.822 4.676 11.006 5.879 7.887 3.046 41.37 15.364 67.887 25.51v19.725H8.498v-6.377c1.796 0 6.164-2.309 9.767-2.309.862 0 1.122 2.563 1.828 2.467 5.616-.762 18.648-6.401 22.462-7.364 5.194 0 8.826-.58 15.626-1.668 11.922-1.906 67.867-18.889 80.753-23.534 3.12-1.125 7.603-6.553 10.59-6.553z" fill="#0047BB"/>
    <path d="M149.524 39.835c.607 0 1.435-7.868 3.976-7.868 2.54 0 3.658 6.074 7.21 6.074 5.201 0 7.872 7.704 11.268 7.704 5.138 0 16.413 6.5 33.824 19.499H8.498v-5.637c1.796 0 6.164-2.04 9.767-2.04.862 0 1.122 3.05 1.828 2.966 5.616-.674 18.648-4.873 22.462-5.724 5.194 0 8.826.01 15.626-.95 11.922-1.685 67.867-5.698 80.753-9.804 3.12-.994 7.603-4.22 10.59-4.22z" fill="#0072CE"/>
    <path fill="#000" d="M153.397 0h1v65.506h-1z"/>
    <g filter="url(#da74de0d8e3848839bb671f5b530d2b4a)" transform="translate(150.515 59.48)" fill-rule="nonzero">
      <circle cx="2.882" cy="2.882" r="2.882" fill="#F28C24"/>
      <g fill="#FFF">
        <path d="M2.193 4.338c-.019.034.014.071.062.071h.767c.032 0 .06-.017.065-.041a1.084 1.084 0 00.016-.07c.012-.055.024-.118.034-.187.054-.338.07-.688.023-1.017a2.252 2.252 0 00-.047-.243l.001-.019.002-.026.003-.063c.002-.092-.008-.141-.063-.167a2.873 2.873 0 01-.237-.145c-.044-.028-.11-.004-.11.04v.42c-.06.411-.216.91-.516 1.447zm.815-1.513c.03-.017.075-.013.096.014a.034.034 0 01.009.018V2.85c-.013-.034-.068-.048-.105-.026z"/>
        <path d="M3.936 1.93a.967.967 0 00-.163-.178c-.18-.151-.39-.22-.624-.156-.203.054-.323.158-.387.33-.054.145-.07.324-.07.67 0 .066.1.069.103.002l.002-.023a.563.563 0 01.015-.068.867.867 0 01.099-.207c.147-.246.364-.417.976-.291.042.009.072-.043.049-.079z"/>
        <path d="M3.093 2.024c.386-.078.717-.008.895.229.12.158.182.372.182.509a.05.05 0 01-.089.034.822.822 0 00-.047-.045c-.04-.036-.09-.086-.136-.12-.284-.214-.695-.277-1.018.052-.016.017-.05.012-.067-.008a.261.261 0 00-.206-.094.149.149 0 01-.026-.003.06.06 0 01-.023-.01.054.054 0 01-.023-.046c0-.028.006-.034.048-.067l.095-.075c.124-.099.406-.354.415-.356z"/>
        <path d="M2.995 2.47c.4 0 .667.185.695.485a1.025 1.025 0 01-.057.429.697.697 0 01-.012.033.051.051 0 01-.097-.008.999.999 0 00-.129-.301c-.118-.186-.279-.295-.492-.295a.051.051 0 01-.051-.05c-.002-.055-.018-.091-.042-.114a.1.1 0 00-.05-.026l-.007-.001-.02-.01c-.012-.01-.012-.01-.02-.043.012-.033.012-.033.025-.042.014-.006.014-.006.018-.006h.008l.034-.003c.057-.006.125-.048.197-.048zm-.352-.015c.025.01.04.034.037.062a.075.075 0 01-.016.035l-.033.042c-.033.046-.04.088-.014.146a.051.051 0 01-.046.073c-.213 0-.374.109-.492.294a1.042 1.042 0 00-.129.302v.003-.003l-.001.005v.001a.05.05 0 01-.037.033H1.91a.046.046 0 01-.006 0l-.002.001h-.005a.05.05 0 01-.044-.03l-.001-.001v-.001a1.253 1.253 0 01-.043-.145 1.005 1.005 0 01-.026-.318c.028-.298.293-.483.69-.484.186-.024.141-.027.17-.015z"/>
        <path d="M1.594 2.009c-.042.01-.073-.043-.049-.079a.967.967 0 01.163-.178c.18-.151.39-.22.624-.156.203.054.323.158.387.33.054.145.069.324.069.67 0 .066-.1.069-.102.002l-.003-.023a.563.563 0 00-.014-.068c-.02-.07-.066-.135-.1-.207-.135-.291-.456-.427-.975-.291z"/>
        <path d="M2.455 2.058c-.386-.078-.784-.042-.962.195a.944.944 0 00-.183.509c0 .047.058.069.09.034a.37.37 0 01.01-.012l.036-.033c.047-.046.087-.087.137-.12.292-.2.606-.256 1.017.052.032.024.08 0 .08-.04l.008-.059c.034-.214-.225-.524-.233-.526z"/>
      </g>
    </g>
    <g filter="url(#da74de0d8e3848839bb671f5b530d2b4b)" transform="translate(150.515 52.929)" fill-rule="nonzero">
      <circle cx="2.882" cy="2.882" r="2.882" fill="#008945"/>
      <path d="M3.013 1.31a1.703 1.703 0 110 3.406 1.703 1.703 0 010-3.406z" fill="#008945"/>
      <path d="M4.562 2.24v2.012H1.31V2.239h3.252zm-.62.154h-2.04a.465.465 0 00-.437.464v1.24h.62v-.156h-.156v-.155h-.154V2.704h2.322v1.083h-.155v.155h-.155v.155h.62V2.858a.464.464 0 00-.465-.464zm-.155.774H2.084v.31h1.703v-.31z" fill="#FFF"/>
    </g>
    <g filter="url(#da74de0d8e3848839bb671f5b530d2b4c)" transform="translate(159.424 59.48)" fill-rule="nonzero">
      <circle cx="2.882" cy="2.882" r="2.882" fill="#008945"/>
      <path d="M3.013 1.31a1.703 1.703 0 110 3.406 1.703 1.703 0 010-3.406z" fill="#008945"/>
      <path d="M4.562 2.24v2.012H1.31V2.239h3.252zm-.62.154h-2.04a.465.465 0 00-.437.464v1.24h.62v-.156h-.156v-.155h-.154V2.704h2.322v1.083h-.155v.155h-.155v.155h.62V2.858a.464.464 0 00-.465-.464zm-.155.774H2.084v.31h1.703v-.31z" fill="#FFF"/>
    </g>
    <g filter="url(#da74de0d8e3848839bb671f5b530d2b4d)" transform="translate(150.515 46.378)" fill-rule="nonzero">
      <circle cx="2.882" cy="2.882" r="2.882" fill="#008945"/>
      <g transform="translate(1.834 1.834)" fill="#FFF">
        <path d="M.277 0h1v2.62h-1z"/>
        <path d="M0 .291h2.358v1H0z"/>
        <rect x=".694" y=".873" width="1.665" height="1.165" rx=".582"/>
        <path d="M1.11.582h1v1h-1z"/>
        <path d="M1.803.582h1v1h-1z"/>
      </g>
    </g>
    <g filter="url(#da74de0d8e3848839bb671f5b530d2b4e)" transform="translate(169.905 59.48)" fill-rule="nonzero">
      <circle cx="2.882" cy="2.882" r="2.882" fill="#008945"/>
      <path d="M4.337 2.162c.125 0 .227.097.227.218v1.245c0 .12-.102.218-.227.218h-2.91a.222.222 0 01-.226-.218V2.38c0-.12.101-.218.226-.218h2.91zm-.422.355v.085a.311.311 0 00-.126.04.21.21 0 00-.075.08.228.228 0 00.013.233.368.368 0 00.156.101l.027.01-.003.27c-.052-.007-.087-.02-.103-.038a.104.104 0 01-.024-.073v-.014h-.124v.013c-.001.052.017.1.053.142.036.041.102.066.197.074v.082l.1.001V3.44a.278.278 0 00.123-.045.243.243 0 00.1-.193.207.207 0 00-.017-.084.174.174 0 00-.064-.073.491.491 0 00-.098-.053l-.04-.014.003-.273a.133.133 0 01.055.023.05.05 0 01.02.041v.015h.124V2.77a.163.163 0 00-.042-.107c-.028-.033-.079-.053-.156-.06v-.085l-.099-.001zm-1.4.867h-.793c-.035 0-.063.035-.063.077 0 .042.028.076.063.076h.792c.035 0 .063-.034.063-.076 0-.042-.028-.077-.063-.077zm1.494-.28l.014.005c.031.014.054.03.066.046a.094.094 0 01.019.06c0 .02-.004.038-.012.056a.11.11 0 01-.033.043.12.12 0 01-.056.02l.002-.23zm-.728-.178H1.72c-.034 0-.06.034-.06.076 0 .043.026.077.06.077h1.56c.034 0 .06-.034.06-.077 0-.042-.026-.076-.06-.076zm.632-.223l-.002.238-.008-.004a.207.207 0 01-.076-.05.094.094 0 01-.019-.061c0-.03.01-.057.028-.08a.125.125 0 01.077-.043zm-1.076-.236H1.72c-.034 0-.062.035-.062.077 0 .042.028.076.062.076h1.116c.034 0 .062-.034.062-.076 0-.042-.028-.077-.062-.077z" fill="#FFF"/>
    </g>
    <g filter="url(#da74de0d8e3848839bb671f5b530d2b4f)" transform="translate(39.94 59.48)" fill-rule="nonzero">
      <circle cx="2.882" cy="2.882" r="2.882" fill="#F28C24"/>
      <g fill="#FFF">
        <path d="M1.643 2.563l.15.067-.09.005a.06.06 0 01-.06-.044l-.002-.012c0-.006 0-.011.002-.016zm0 0l-.333-.15 1.67-.579 1.668.578-1.669.755-1.187-.537 1.192-.057a.059.059 0 00.057-.062.059.059 0 00-.062-.056l-1.281.062a.06.06 0 00-.055.046z"/>
        <path d="M2.064 3.607h.004c.039.174.434.312.917.312.482 0 .878-.138.917-.312h.003v-.725l-.926.425-.902-.4m-.085.463c.026.04-.004.09-.052.09H1.5c-.048 0-.078-.05-.052-.09l.22-.335a.063.063 0 01.104 0l.22.336z"/>
        <path d="M1.805 3.084v-.563c0-.033-.038-.06-.085-.06-.047 0-.085.027-.085.06v.563c0 .033.038.06.085.06.047 0 .085-.027.085-.06z"/>
      </g>
    </g>
    <g filter="url(#da74de0d8e3848839bb671f5b530d2b4g)" transform="translate(15.835 59.48)" fill-rule="nonzero">
      <circle cx="2.882" cy="2.882" r="2.882" fill="#F28C24"/>
      <g fill="#FFF">
        <path d="M3.01 1.946l.953.608v1.324h-.71V3.14a.074.074 0 00-.071-.074h-.35a.074.074 0 00-.073.074v.737H2.05V2.554l.96-.608zm-.004.408a.198.198 0 00-.194.202c0 .111.087.201.194.201.108 0 .195-.09.195-.201a.198.198 0 00-.195-.202z"/>
        <path d="M4.324 2.864c.036.023.084.01.106-.027a.082.082 0 00-.027-.11l-1.353-.85a.075.075 0 00-.079 0l-1.361.841a.082.082 0 00-.027.11c.022.038.069.05.106.028l1.321-.817 1.314.825z"/>
        <path d="M3.402 1.981c0-.026.02-.048.046-.048h.321c.026 0 .047.022.047.048v.404c0 .038-.04.06-.071.04l-.321-.208a.048.048 0 01-.022-.041V1.98z"/>
      </g>
    </g>
    <g filter="url(#da74de0d8e3848839bb671f5b530d2b4h)" transform="translate(8.498 59.48)" fill-rule="nonzero">
      <circle cx="2.882" cy="2.882" r="2.882" fill="#008945"/>
      <path d="M2.524 1.76c0 .247.203.448.455.448a.452.452 0 00.455-.449.452.452 0 00-.455-.449.452.452 0 00-.455.45zm-.411.467c.113 0 .238.126.33.242.11-.026.227-.04.348-.04.592 0 1.086.344 1.196.802l.017-.001c.06 0 .107.037.107.083 0 .045-.045.081-.101.084v.028c0 .247-.11.474-.293.648v.142c0 .08-.065.144-.145.144h-.354l-.006.001a.144.144 0 01-.145-.144v-.062h-.533v.062c0 .08-.065.144-.145.144v.007l-.024-.007h-.336a.144.144 0 01-.145-.144v-.124a.942.942 0 01-.287-.464H1.52a.144.144 0 01-.145-.143v-.4c0-.08.065-.143.145-.143h.204c.063-.093.144-.176.238-.248.006-.072.001-.15.001-.203 0-.086-.008-.263.15-.263zm-.024.65a.12.12 0 00-.121.12.12.12 0 00.12.119.12.12 0 00.121-.12.12.12 0 00-.12-.119zm1.333-.146a1.38 1.38 0 00-.766-.15.065.065 0 00-.055.073c.005.035.038.06.074.054a1.25 1.25 0 01.68.135.066.066 0 00.09-.023.064.064 0 00-.023-.089z" fill="#FFF"/>
    </g>
  </g>
</svg>
