<svg width="191" height="88" viewBox="0 0 191 88" xmlns="http://www.w3.org/2000/svg">
  <g transform="translate(.396)" fill="none">
    <path d="M86.758 2.961c46.444 0 84.094 37.65 84.094 84.094H2.665c0-46.444 37.65-84.094 84.093-84.094z" fill="#FFF"/>
    <path d="M86.758.592c47.752 0 86.463 38.71 86.463 86.463h-1.185c0-47.098-38.18-85.278-85.278-85.278-47.097 0-85.277 38.18-85.277 85.278H.296C.296 39.303 39.006.592 86.758.592z" fill="#DAE0E2"/>
    <path d="M86.758 4.145c45.79 0 82.91 37.12 82.91 82.91h-26.65c0-31.072-25.188-56.26-56.26-56.26-31.071 0-56.26 25.188-56.26 56.26H3.85c0-45.79 37.12-82.91 82.91-82.91z" fill="#EEF3F5"/>
    <path d="M86.758 4.145c27.289 0 51.498 13.184 66.606 33.53l-21.34 15.963c-10.248-13.858-26.707-22.843-45.266-22.843-31.071 0-56.26 25.188-56.26 56.26H3.85c0-45.79 37.12-82.91 82.91-82.91z" fill="#A7C6ED"/>
    <path d="M86.758 4.145c25.64 0 48.562 11.64 63.77 29.922L130.11 51.193c-10.32-12.46-25.908-20.398-43.35-20.398-31.072 0-56.26 25.188-56.26 56.26H3.849c0-45.79 37.12-82.91 82.91-82.91z" fill="#009CDE"/>
    <path d="M31.06 25.64l18.007 19.647C37.664 55.583 30.499 70.482 30.499 87.055H3.849c0-24.35 10.497-46.247 27.212-61.415z" fill="#005EB8"/>
    <path d="M3.951 82.835l26.617 1.323a57.47 57.47 0 00-.07 2.823H3.85c0-1.39.035-2.772.102-4.146z" fill="#0C2340"/>
    <path d="M66.834 62.092V60.77c1.521-.142 2.814-1.08 2.814-2.686 0-1.507-1.194-2.232-2.558-2.615l-.98-.285c-.853-.227-.925-.668-.925-.88 0-.555.455-.982 1.138-.982.682 0 1.108.455 1.094 1.123h1.961c.015-1.492-1.009-2.544-2.544-2.729v-1.321h-1.009v1.321c-1.506.2-2.615 1.208-2.615 2.616 0 .81.355 1.99 2.345 2.53l1.066.312c.81.242 1.052.625 1.052 1.01 0 .568-.44.994-1.208.994-.867 0-1.365-.483-1.365-1.18h-1.96c0 1.436 1.052 2.559 2.686 2.758v1.322l1.01.014zm6.78-.924c2.018 0 3.44-1.194 3.44-2.871 0-1.094-.64-1.947-1.65-2.317.754-.384 1.223-1.066 1.223-1.847.028-1.578-1.25-2.573-2.885-2.573-1.194 0-2.16.54-2.814 1.308l1.023 1.165c.355-.455.995-.753 1.578-.753.682 0 1.165.355 1.193.924.043.653-.54 1.193-1.549 1.193h-.526v1.436h.896c.952 0 1.606.54 1.606 1.322 0 .753-.64 1.307-1.62 1.307-.683 0-1.223-.34-1.663-.938l-1.308 1.01c.668 1.065 1.734 1.634 3.056 1.634zm8.485-.17V51.56h-.156l-3.866 1.606v1.748l2.146-.824v6.907h1.876zm2.09 2.316c1.008-.895 1.89-2.373 1.833-4.164h-1.763c.086 1.535-.284 2.544-1.137 3.71l1.066.454zm6.935-2.146c2.018 0 3.61-1.208 3.61-2.956 0-1.18-.725-2.132-1.734-2.445.569-.27 1.038-.952 1.038-1.82 0-1.435-1.265-2.387-2.914-2.387-1.649 0-2.913.952-2.913 2.388 0 .867.469 1.549 1.037 1.819-1.009.313-1.748 1.265-1.748 2.445 0 1.748 1.606 2.956 3.624 2.956zm0-6.026c-.64 0-1.108-.441-1.108-.981s.469-.995 1.108-.995c.64 0 1.109.455 1.109.995s-.47.98-1.109.98zm0 4.349c-.98 0-1.691-.64-1.691-1.464s.725-1.436 1.691-1.436c.967 0 1.692.597 1.692 1.45 0 .796-.683 1.45-1.692 1.45zm8.428 1.677c2.701 0 3.44-2.16 3.44-4.804 0-2.686-.739-4.804-3.44-4.804-2.714 0-3.467 2.118-3.467 4.804 0 2.644.753 4.804 3.467 4.804zm0-1.734c-1.208 0-1.577-1.379-1.577-3.07 0-1.72.37-3.07 1.577-3.07 1.194 0 1.55 1.35 1.55 3.07 0 1.691-.356 3.07-1.55 3.07zm8.386 1.734c2.7 0 3.44-2.16 3.44-4.804 0-2.686-.74-4.804-3.44-4.804-2.715 0-3.468 2.118-3.468 4.804 0 2.644.753 4.804 3.468 4.804zm0-1.734c-1.208 0-1.577-1.379-1.577-3.07 0-1.72.37-3.07 1.577-3.07 1.194 0 1.55 1.35 1.55 3.07 0 1.691-.356 3.07-1.55 3.07z" fill="#407CCA"/>
    <path d="M49.049 84.686v-2.637l2.197-3.076h-.904l-1.666 2.338-1.658-2.338h-.896l2.173 3.076v2.637h.754zm3.648.1c.746 0 1.443-.366 1.783-1.037l-.63-.249c-.216.39-.656.605-1.128.605-.663 0-1.16-.356-1.269-1.044h3.15c.01-.108.018-.216.018-.324 0-1.227-.821-2.023-1.924-2.023s-1.99.796-1.99 2.023.887 2.048 1.99 2.048zm1.202-2.347h-2.437c.116-.697.58-1.045 1.235-1.045.638 0 1.111.382 1.202 1.045zm3.341 2.346c.622 0 1.161-.323 1.418-.787v.688h.721v-3.872h-.72v.605c-.258-.456-.805-.705-1.385-.705-1.095 0-1.932.887-1.932 2.032 0 1.185.887 2.04 1.898 2.04zm.108-.68c-.713 0-1.277-.621-1.277-1.36 0-.729.564-1.35 1.26-1.35.656 0 1.327.555 1.327 1.35 0 .788-.622 1.36-1.31 1.36zm4.021.58v-1.417c0-1.02.307-1.857 1.078-1.857.15 0 .357.033.564.132l.116-.68c-.116-.074-.398-.149-.672-.149-.514 0-.887.299-1.086.979v-.88h-.73v3.873h.73zm3.2 0v-5.977h-.72v5.978h.72zm2.272 1.883l2.405-5.754h-.78l-1.185 2.852-1.17-2.852h-.779l1.55 3.764-.803 1.99h.762zm7.048-1.783c1.185 0 1.906-.82 1.906-1.708 0-.812-.58-1.343-1.55-1.583l-.746-.183c-.763-.182-.83-.597-.83-.796 0-.563.531-.945 1.104-.945.613 0 1.086.39 1.086.962h.746c0-1.02-.804-1.658-1.808-1.658-.995 0-1.882.663-1.882 1.65 0 .464.191 1.177 1.402 1.467l.737.183c.481.124.987.373.987.928 0 .506-.406.987-1.152.987-.763 0-1.244-.514-1.269-1.02h-.746c.008.887.812 1.716 2.015 1.716zm4.56 0c.621 0 1.16-.323 1.417-.787v.688h.722v-3.872h-.722v.605c-.257-.456-.804-.705-1.384-.705-1.095 0-1.932.887-1.932 2.032 0 1.185.887 2.04 1.899 2.04zm.107-.68c-.713 0-1.276-.621-1.276-1.36 0-.729.563-1.35 1.26-1.35.655 0 1.326.555 1.326 1.35 0 .788-.621 1.36-1.31 1.36zm5.1.58l1.616-3.871h-.78l-1.185 2.951-1.194-2.951h-.77l1.608 3.872h.704zm2.727-4.816c.282 0 .514-.208.514-.481 0-.274-.232-.481-.514-.481a.492.492 0 00-.506.48c0 .274.232.482.506.482zm.365 4.817v-3.872h-.722v3.872h.722zm1.973 0v-2.098c0-.837.647-1.16 1.186-1.16.539 0 .936.414.936 1.06v2.198h.722v-2.239c.008-1.086-.597-1.733-1.559-1.733-.423 0-1.053.216-1.285.689v-.59H88v3.873h.721zm5.72 1.981c1.278 0 2.107-.688 2.107-2.52v-3.333h-.722v.605c-.257-.448-.804-.705-1.384-.705-1.061 0-1.932.805-1.932 2.032 0 1.218.879 2.04 1.94 2.04.556 0 1.12-.266 1.376-.706v.117c0 1.31-.53 1.79-1.384 1.79-.431 0-.887-.24-1.128-.68l-.613.324a1.963 1.963 0 001.74 1.036zm.067-2.562c-.705 0-1.268-.597-1.268-1.368 0-.779.563-1.343 1.268-1.343.638 0 1.318.506 1.318 1.343 0 .83-.621 1.368-1.318 1.368zm4.436.68c.804 0 1.5-.456 1.5-1.177 0-.44-.207-.92-1.011-1.12l-.572-.14c-.249-.058-.498-.2-.498-.465 0-.298.25-.539.622-.539.307 0 .614.2.622.498h.696c0-.78-.68-1.128-1.334-1.128-.78 0-1.327.506-1.327 1.145 0 .621.373.936 1.02 1.11l.53.125c.307.066.531.215.531.506 0 .315-.29.555-.78.555-.472 0-.762-.274-.77-.605H97.5c.033.796.746 1.235 1.443 1.235zm5.497-.1v-2.147h1.517c1.21 0 1.7-.878 1.7-1.782 0-.887-.49-1.783-1.7-1.783h-2.272v5.713h.755zm1.467-2.851h-1.467V79.67h1.509c.68 0 .953.555.953 1.086 0 .547-.282 1.078-.995 1.078zm3.391 2.852v-5.978h-.721v5.978h.721zm2.894.1c.621 0 1.16-.324 1.417-.788v.688h.722v-3.872h-.722v.605c-.257-.456-.804-.705-1.384-.705-1.095 0-1.932.887-1.932 2.032 0 1.185.887 2.04 1.899 2.04zm.107-.68c-.713 0-1.276-.622-1.276-1.36 0-.73.563-1.352 1.26-1.352.655 0 1.326.556 1.326 1.352 0 .787-.621 1.36-1.31 1.36zm4.013.58v-2.098c0-.837.647-1.16 1.186-1.16.539 0 .937.414.937 1.06v2.198h.72v-2.239c.01-1.086-.596-1.733-1.558-1.733-.423 0-1.053.216-1.285.689v-.59h-.721v3.873h.721zm6.126-1.831l2.018 2.017-2.335.667a.286.286 0 01-.278-.071.283.283 0 01-.072-.278l.667-2.335zm3.839-4.004l2.183 2.182-3.523 3.522-2.182-2.182 3.522-3.522zm1.826-1.825l.208.208 1.774 1.774a.283.283 0 010 .4l-1.226 1.226-2.182-2.183 1.426-1.425zm-57.23-2.901c1.102 0 2.03-.812 2.03-2.04 0-1.226-.928-2.03-2.03-2.03-1.103 0-2.023.804-2.023 2.03 0 1.228.92 2.04 2.023 2.04zm0-.68c-.705 0-1.294-.555-1.294-1.36 0-.795.589-1.35 1.294-1.35.713 0 1.31.555 1.31 1.35 0 .805-.597 1.36-1.31 1.36zm3.996.581v-3.25h.904v-.622h-.904v-.497c-.008-.506.174-.929.862-.929h.29v-.68h-.414c-1.037 0-1.46.697-1.46 1.708v.398h-.746v.622h.747v3.25h.72zm5.356.522v-.688c1.003-.058 1.608-.763 1.608-1.525 0-.705-.506-1.203-1.418-1.418l-.663-.158c-.646-.157-.705-.514-.705-.696 0-.464.407-.796.946-.796.547 0 .928.357.92.854h.746c.008-.82-.58-1.41-1.434-1.5v-.647h-.498v.655c-.787.107-1.434.646-1.434 1.442 0 .415.174 1.045 1.277 1.318l.663.166c.547.133.846.415.846.805 0 .456-.348.853-.987.853-.671 0-1.078-.456-1.086-.92h-.746c0 .713.572 1.393 1.467 1.534v.721h.498zm5.546-.522v-1.12h.771v-.68h-.77v-3.622h-.125l-3.366 4.145v.158h2.77v1.119h.72zm-.72-1.8h-1.56l1.56-1.865v1.866zm4.302 1.9c1.559 0 1.965-1.269 1.965-2.795 0-1.542-.406-2.794-1.965-2.794-1.559 0-1.965 1.252-1.965 2.794 0 1.526.406 2.794 1.965 2.794zm0-.68c-.995 0-1.235-.987-1.235-2.115 0-1.144.24-2.105 1.235-2.105.995 0 1.244.961 1.244 2.105 0 1.128-.249 2.115-1.244 2.115zm2.794 1.915c.63-.54.954-1.426.862-2.38h-.73c.109 1.012-.165 1.567-.63 2.23l.498.15zm3.913-1.236c1.178 0 2.023-.704 2.023-1.716 0-.696-.406-1.285-1.028-1.525.332-.208.556-.547.556-1.003 0-.763-.63-1.344-1.55-1.344-.93 0-1.551.58-1.551 1.344 0 .456.216.795.547 1.003-.63.24-1.036.829-1.036 1.534 0 1.003.854 1.707 2.04 1.707zm0-3.473c-.447 0-.795-.307-.795-.705 0-.406.348-.738.795-.738.448 0 .788.332.788.738 0 .406-.34.705-.788.705zm0 2.794c-.72 0-1.276-.481-1.276-1.095 0-.63.58-1.094 1.276-1.094.68 0 1.26.456 1.26 1.103 0 .605-.513 1.086-1.26 1.086zm4.726.68c1.111 0 1.915-.747 1.915-1.85 0-1.052-.73-1.732-1.766-1.732-.422 0-.853.149-1.177.373l.307-1.625h2.28v-.688h-2.869l-.472 2.703.447.373c.415-.307.88-.498 1.327-.498.663 0 1.202.431 1.202 1.111 0 .68-.522 1.153-1.227 1.153-.647 0-1.11-.382-1.326-.88l-.606.332a2.126 2.126 0 001.965 1.227zm4.75 0c1.56 0 1.966-1.269 1.966-2.795 0-1.542-.406-2.794-1.965-2.794-1.559 0-1.965 1.252-1.965 2.794 0 1.526.406 2.794 1.965 2.794zm0-.68c-.994 0-1.234-.987-1.234-2.115 0-1.144.24-2.105 1.235-2.105.995 0 1.244.961 1.244 2.105 0 1.128-.25 2.115-1.244 2.115zm63.391-30.722c1.4 0 2.488-1.137 2.488-2.523 0-1.392-1.088-2.544-2.488-2.544-1.392 0-2.473 1.152-2.473 2.544 0 1.386 1.08 2.523 2.473 2.523zm0-.597c-1.03 0-1.826-.88-1.826-1.926 0-1.051.796-1.947 1.826-1.947 1.045 0 1.841.896 1.841 1.947 0 1.045-.796 1.926-1.84 1.926zm5.664.597c.754 0 1.407-.32 1.84-.831l-.468-.398a1.807 1.807 0 01-1.372.632c-1.03 0-1.84-.88-1.84-1.926 0-1.051.81-1.947 1.84-1.947.548 0 1.045.249 1.372.633l.469-.398a2.384 2.384 0 00-1.84-.832c-1.386 0-2.488 1.159-2.488 2.544 0 1.386 1.102 2.523 2.487 2.523zm4.357-.085v-4.3h1.492v-.596h-3.631v.597h1.492v4.299h.647zm6.474 0v-.597h-1.884l1.28-1.535c.305-.362.54-.839.54-1.201 0-.824-.583-1.372-1.457-1.372-.796 0-1.35.47-1.443 1.173l.555.12c.035-.418.383-.703.888-.703.504 0 .838.313.838.782 0 .213-.199.59-.49.945l-1.748 2.11v.278h2.92zm3.667 0v-.597h-1.884l1.28-1.535c.305-.362.54-.839.54-1.201 0-.824-.583-1.372-1.457-1.372-.796 0-1.35.47-1.443 1.173l.554.12c.036-.418.384-.703.889-.703.504 0 .838.313.838.782 0 .213-.199.59-.49.945l-1.748 2.11v.278h2.92z" fill="#000"/>
    <circle fill="#2C3D48" cx="160.784" cy="43.823" r="1.777"/>
  </g>
</svg>
