<svg t="1598802585410" class="icon" viewBox="0 0 1024 1024" version="1.1" xmlns="http://www.w3.org/2000/svg" p-id="1782" width="200" height="200"><path d="M706.816 214.528H315.9552c-39.3728 0-73.8304 26.624-83.6608 64.768l-34.7648 133.5808c-8.96 29.7472-1.6896 61.952 19.0464 85.0432l229.2224 260.1472c35.328 39.2192 96.8192 39.168 132.096-0.1024l228.4032-260.096a88.9344 88.9344 0 0 0 18.9952-84.9408l-34.816-133.632c-9.8816-38.0928-44.288-64.768-83.6608-64.768z" fill="#96e9ff" p-id="1783"></path><path d="M511.8976 910.1312c-38.4 0-75.2128-16.384-100.9152-44.9024l-290.816-322.816c-31.4368-34.9184-42.6496-84.48-29.2864-129.536l49.408-190.72a132.83328 132.83328 0 0 1 128.6144-99.584h485.0176c60.5696 0 113.4592 40.96 128.6144 99.5328l49.408 190.8224c13.312 44.9536 2.1504 94.464-29.184 129.3312l-289.792 322.7136a135.92576 135.92576 0 0 1-100.9664 45.056c0 0.1024-0.0512 0.1024-0.1024 0.1024zM268.9024 173.7728c-37.2224 0-69.7344 25.1904-79.0528 61.184L140.288 426.1376c-0.1024 0.3072-0.1536 0.6144-0.256 0.9728-8.448 28.16-1.4848 59.1872 18.176 80.9984l290.816 322.816c16.2816 18.0736 38.6048 28.0064 62.8736 28.0064h0.0512c24.32 0 46.6432-9.984 62.8736-28.1088l289.792-322.7136c19.6096-21.8112 26.5216-52.8384 18.0736-80.896-0.1024-0.3072-0.2048-0.6144-0.256-0.9728l-49.5616-191.2832a81.61792 81.61792 0 0 0-79.0528-61.184H268.9024z" fill="#55524F" p-id="1784"></path><path d="M523.0592 594.3296c-20.2752 0-40.6016-7.7312-56.0128-23.1936L347.3408 451.4816a25.61536 25.61536 0 0 1 0-36.1984 25.61536 25.61536 0 0 1 36.1984 0l119.7056 119.7056a28.08832 28.08832 0 0 0 39.6288 0l119.7056-119.7056a25.61536 25.61536 0 0 1 36.1984 0 25.61536 25.61536 0 0 1 0 36.1984l-119.7056 119.7056c-15.4112 15.4624-35.7376 23.1424-56.0128 23.1424z" fill="#55524F" p-id="1785"></path></svg>