<svg width="106" height="120" xmlns="http://www.w3.org/2000/svg"><defs><linearGradient x1="68.128%" y1="-35.691%" x2="30.44%" y2="114.943%" id="a"><stop stop-color="#FA8E7D" offset="0%"/><stop stop-color="#F74A5C" offset="51.264%"/><stop stop-color="#F51D2C" offset="100%"/></linearGradient><linearGradient x1="68.128%" y1="-35.691%" x2="74.536%" y2="162.512%" id="b"><stop stop-color="#FA8E7D" offset="0%"/><stop stop-color="#F74A5C" offset="51.264%"/><stop stop-color="#F51D2C" offset="100%"/></linearGradient><linearGradient x1="69.644%" y1="0%" x2="69.644%" y2="100%" id="c"><stop stop-color="#29CDFF" offset="0%"/><stop stop-color="#148EFF" offset="37.86%"/><stop stop-color="#0A60FF" offset="100%"/></linearGradient><linearGradient x1="-19.819%" y1="-36.793%" x2="138.579%" y2="157.638%" id="d"><stop stop-color="#29CDFF" offset="0%"/><stop stop-color="#0F78FF" offset="100%"/></linearGradient></defs><g fill="none" fill-rule="evenodd"><path d="M65.63 72.2l-12.4-19L46 63.69h7.37a5.5 5.5 0 0 1 0 11H35.49a5.5 5.5 0 0 1-4.52-8.63l17.87-25.8a5.49 5.49 0 0 1 9.12.12l16.88 25.8a5.5 5.5 0 0 1-4.6 8.51 5.47 5.47 0 0 1-4.61-2.49z" fill="url(#a)"/><path d="M70.28 25a6.93 6.93 0 0 1-3.47-.93l-13.94-8L39 24a7.002 7.002 0 1 1-7-12.13l17.34-10a7 7 0 0 1 7 0l17.42 10A7 7 0 0 1 70.28 25z" fill="url(#b)"/><path d="M52.86 119.92a7 7 0 0 1-3.5-.94L3.93 92.75a7 7 0 0 1-3.5-6.06V34.23a7 7 0 0 1 3.5-6.06l11.23-6.48a7 7 0 1 1 7 12.12l-7.73 4.46v44.38l38.43 22.18 36.93-21.314a3 3 0 0 0 1.5-2.598V40.003a3 3 0 0 0-1.501-2.599L83.61 33.84a7.002 7.002 0 0 1 7-12.13l11.18 6.46a7 7 0 0 1 3.5 6.06v52.46a7 7 0 0 1-3.5 6.06L56.36 119a6.94 6.94 0 0 1-3.5.92z" fill="url(#c)" fill-rule="nonzero"/><path d="M78.06 106.45c-11.17 6.55-25.19-1.62-25.19-1.62L15.94 83.516a3 3 0 0 1-1.5-2.598V40.003a3 3 0 0 1 1.5-2.599l6.23-3.594a7 7 0 1 0-7-12.12L3.94 28.17a7 7 0 0 0-3.5 6.06v52.46a7 7 0 0 0 3.5 6.06L49.36 119a7 7 0 0 0 7 0l21.7-12.53v-.02z" fill="url(#d)" fill-rule="nonzero"/></g></svg>