<svg t="1598801701787" class="icon" viewBox="0 0 1024 1024" version="1.1" xmlns="http://www.w3.org/2000/svg" p-id="1001" width="200" height="200"><path d="M64.5 550.6s58.9-124.9 289.6-96.5c0 0 140.7-137.4 309.3-88.3s191.5 83.4 261.8 78.4l27.8 39.6-21.3 9.4 27.8 24.5-8.2 67.1s-68.7 35.2-127.6 36.4-710.2 0-710.2 0-40.8-23.1-49-70.6z" fill="#EF7037" p-id="1002"></path><path d="M240.2 583.7m-83.5 0a83.5 83.5 0 1 0 167 0 83.5 83.5 0 1 0-167 0Z" fill="#441706" opacity=".6" p-id="1003"></path><path d="M240.2 583.7m-29.5 0a29.5 29.5 0 1 0 59 0 29.5 29.5 0 1 0-59 0Z" fill="#FFFEFE" p-id="1004"></path><path d="M752.4 583.7m-83.5 0a83.5 83.5 0 1 0 167 0 83.5 83.5 0 1 0-167 0Z" fill="#441706" opacity=".6" p-id="1005"></path><path d="M752.4 583.7m-29.5 0a29.5 29.5 0 1 0 59 0 29.5 29.5 0 1 0-59 0Z" fill="#FFFEFE" p-id="1006"></path><path d="M424.5 445.9v24h327.9l15.8-30.5c-0.1-0.1-198.9-97.4-343.7 6.5z" fill="#FFE100" opacity=".41" p-id="1007"></path><path d="M620.7 470.1l-10.2-0.2 20-69.2 9.8 1.3z" fill="#FFFFFF" p-id="1008"></path><path d="M563.2 488.4h46.6v9.8h-46.6zM354.5 578.8h278.6v9.8H354.5z" fill="#87330E" p-id="1009"></path><path d="M80.6 527.5s32.1 21.9 50.5 10.4c18.4-11.5 4.9-54 4.9-54s-29.1 13.8-55.4 43.6zM843 493.3l110.1-9.4-21.3 9.4 27.8 24.6-76.1 8.6z" fill="#FFE100" p-id="1010"></path></svg>