<svg t="1598802632860" class="icon" viewBox="0 0 1024 1024" version="1.1" xmlns="http://www.w3.org/2000/svg" p-id="977" width="200" height="200"><path d="M347.445 280L229 437.82 509 744l280-306.18L670.555 280z" fill="#B0E2FB" p-id="978"></path><path d="M653.828 433.526L509 744l280-306.18L670.555 280l-79.61-0.001z" fill="#49A8FA" p-id="979"></path><path d="M425.437 280l-61.265 153.526L509 744l144.828-310.474L592.563 280z" fill="#73C8FA" p-id="980"></path><path d="M680.151 260.8l133.762 178.228L509 772.45 204.087 439.028 337.85 260.8H680.15z m-41.929 183.466H379.775L509 721.289l129.223-277.023z m-279.633 0H234.895l252.482 276.089L358.59 444.266z m311.966-164.267h-68.778l58.974 145.067h70.318a9.6 9.6 0 0 1 9.6 9.6c0 5.211-4.151 9.452-9.327 9.597l-0.273 0.004-71.659-0.001-128.788 276.089L789 437.819 670.555 280z m-254.333 0h-68.777L238.57 425.066h118.678l58.974-145.067z m164.88 0.126H436.897l-58.924 144.941h262.051l-58.922-144.941z" fill="#30699A" p-id="981"></path></svg>