<svg t="1598802663753" class="icon" viewBox="0 0 1024 1024" version="1.1" xmlns="http://www.w3.org/2000/svg" p-id="1133" width="200" height="200"><path d="M421.962 224h251.204c21.15 0 38.296 17.145 38.296 38.295H383.667c0-21.15 17.145-38.295 38.295-38.295z" fill="#FFC9CA" p-id="1134"></path><path d="M301.718 664.393c39.934 0 72.308 32.148 72.308 71.804S341.652 808 301.718 808c-39.934 0-72.308-32.147-72.308-71.803s32.374-71.804 72.308-71.804z m0 38.296c-18.636 0-33.744 15.002-33.744 33.508s15.108 33.508 33.744 33.508 33.744-15.002 33.744-33.508-15.108-33.508-33.744-33.508zM706.641 664.393c39.934 0 72.308 32.148 72.308 71.804S746.575 808 706.64 808c-39.934 0-72.308-32.147-72.308-71.803s32.374-71.804 72.308-71.804z m0 38.296c-18.636 0-33.744 15.002-33.744 33.508s15.108 33.508 33.744 33.508 33.744-15.002 33.744-33.508-15.108-33.508-33.744-33.508z" fill="#D0DCEB" p-id="1135"></path><path d="M301.718 654.793c-45.221 0-81.908 36.43-81.908 81.404 0 44.973 36.687 81.403 81.908 81.403 45.221 0 81.908-36.43 81.908-81.403 0-44.973-36.687-81.404-81.908-81.404z m0 19.2c34.647 0 62.708 27.865 62.708 62.204s-28.06 62.203-62.708 62.203c-34.648 0-62.708-27.864-62.708-62.203 0-34.34 28.06-62.204 62.708-62.204zM706.641 654.793c-45.221 0-81.908 36.43-81.908 81.404 0 44.973 36.687 81.403 81.908 81.403 45.221 0 81.908-36.43 81.908-81.403 0-44.973-36.687-81.404-81.908-81.404z m0 19.2c34.648 0 62.708 27.865 62.708 62.204S741.289 798.4 706.64 798.4c-34.647 0-62.708-27.864-62.708-62.203 0-34.34 28.06-62.204 62.708-62.204z" fill="#30699A" p-id="1136"></path><path d="M827.318 281.443c21.208 0 38.4 17.192 38.4 38.4v28.616H749.862c-20.996 0-38.056 16.85-38.395 37.765l-0.005 0.635v181.692c0 20.995 16.85 38.056 37.765 38.395l0.635 0.005h115.856v105.206c0 21.208-17.192 38.4-38.4 38.4H171.4c-21.208 0-38.4-17.192-38.4-38.4V319.843c0-21.208 17.192-38.4 38.4-38.4h655.918z m-269.949 86.164h-77.456c-20.996 0-38.056 16.85-38.395 37.765l-0.005 0.635V731.41h154.256V406.007c0-20.996-16.85-38.056-37.765-38.395l-0.635-0.005z m-241.107 57.442h-96.575c-10.49 0-19.015 8.412-19.197 18.859l-0.003 0.341v86.06c0 10.489 8.412 19.014 18.859 19.196l0.341 0.003h96.575c10.49 0 19.014-8.412 19.197-18.858l0.003-0.342V444.25c0-10.49-8.413-19.015-18.86-19.197l-0.34-0.003z" fill="#E35E60" p-id="1137"></path><path d="M885 348.459v258.492H749.862c-21.208 0-38.4-17.192-38.4-38.4V386.859c0-21.208 17.192-38.4 38.4-38.4H885z m-19.201 239.292V367.659H749.862c-10.49 0-19.015 8.412-19.197 18.859l-0.003 0.341v181.692c0 10.49 8.412 19.015 18.858 19.197l0.342 0.003h115.937z" fill="#30699A" p-id="1138"></path><path d="M479.913 386.754h96.738c21.208 0 38.4 17.192 38.4 38.4v313.698H441.513V425.154c0-21.208 17.192-38.4 38.4-38.4z" fill="#FFE27D" p-id="1139"></path><path d="M316.262 425.05c10.603 0 19.2 8.595 19.2 19.2v86.058c0 10.604-8.597 19.2-19.2 19.2h-96.575c-10.604 0-19.2-8.596-19.2-19.2V444.25c0-10.604 8.596-19.2 19.2-19.2h96.575z m0 19.2h-96.575v86.058h96.575V444.25z" fill="#30699A" p-id="1140"></path><path d="M171.4 750.61c-31.812 0-57.6-25.789-57.6-57.6V300.695c0-31.812 25.788-57.6 57.6-57.6h196.35c7.814-22.06 28.712-37.933 53.366-38.289l0.846-0.006h251.204c24.997 0 46.304 15.964 54.212 38.295h99.94c31.812 0 57.6 25.788 57.6 57.6V693.01c0 31.811-25.788 57.6-57.6 57.6z m655.918-488.315H171.4c-21.208 0-38.4 17.192-38.4 38.4V693.01c0 21.208 17.192 38.4 38.4 38.4l250.912-0.001V406.007c0-31.494 25.276-57.084 56.648-57.593l0.953-0.007h77.456c31.812 0 57.6 25.788 57.6 57.6v325.402h212.349c20.996 0 38.056-16.85 38.395-37.764l0.005-0.635V300.695c0-21.208-17.192-38.4-38.4-38.4zM557.369 367.607h-77.456c-21.208 0-38.4 17.192-38.4 38.4V731.41h154.256V406.007c0-21.208-17.192-38.4-38.4-38.4zM673.166 224H421.962c-14.153 0-26.513 7.677-33.142 19.095h317.488c-6.547-11.276-18.683-18.904-32.615-19.091l-0.527-0.004z" fill="#30699A" p-id="1141"></path></svg>