<svg width="98" height="109" viewBox="0 0 98 109" xmlns="http://www.w3.org/2000/svg">
  <g transform="translate(3.73 1)" fill="none" fill-rule="evenodd">
    <circle stroke="#EEF3F5" stroke-width="6" cx="44.067" cy="46.378" r="44.067"/>
    <path d="M.71 61.861c6.494 18.085 23.716 30.395 43.276 30.395 25.382 0 45.96-20.54 45.96-45.878S69.368.5 43.986.5a1.811 1.811 0 000 3.622c23.383 0 42.338 18.92 42.338 42.256 0 23.337-18.955 42.256-42.338 42.256-18.02 0-33.886-11.34-39.867-27.997A1.811 1.811 0 00.71 61.861z" fill="#F28C24"/>
    <circle stroke="#EEF3F5" stroke-width="4" cx="44.067" cy="46.378" r="39.842"/>
    <path d="M33.208 6.78c-17.694 4.843-30.19 20.985-30.19 39.598 0 22.67 18.379 41.049 41.05 41.049 22.67 0 41.048-18.378 41.048-41.05 0-22.67-18.378-41.048-41.049-41.048a1.207 1.207 0 100 2.415c21.337 0 38.634 17.297 38.634 38.634S65.404 85.012 44.067 85.012 5.433 67.715 5.433 46.378c0-17.518 11.76-32.712 28.413-37.268a1.207 1.207 0 10-.638-2.33z" fill="#F2E7AA"/>
    <path d="M3.02 48.864c1.293 21.605 19.247 38.563 41.011 38.563 22.69 0 41.085-18.378 41.085-41.05 0-22.67-18.394-41.048-41.085-41.048a1.207 1.207 0 100 2.415c21.357 0 38.67 17.297 38.67 38.634s-17.313 38.634-38.67 38.634c-20.485 0-37.384-15.961-38.6-36.293a1.207 1.207 0 00-2.41.145z" fill="#FFD119"/>
    <path d="M26.233 43.447c.963 0 1.774-.71 1.774-1.782 0-1.073-.81-1.775-1.774-1.775s-1.768.702-1.768 1.775c0 1.072.804 1.782 1.768 1.782zm0-.594c-.616 0-1.13-.486-1.13-1.188 0-.696.514-1.181 1.13-1.181.623 0 1.144.485 1.144 1.18 0 .703-.521 1.189-1.144 1.189zm3.491.507v-2.84h.79v-.543h-.79v-.435c-.007-.442.152-.811.754-.811h.253v-.594h-.362c-.906 0-1.275.608-1.275 1.492v.348h-.652v.543h.652v2.84h.63zm4.68.456v-.601c.876-.051 1.405-.667 1.405-1.333 0-.616-.442-1.05-1.239-1.239l-.58-.137c-.564-.138-.615-.45-.615-.609 0-.406.355-.695.826-.695.478 0 .811.311.804.746h.652c.007-.717-.507-1.232-1.253-1.311v-.565h-.435v.572c-.688.094-1.253.565-1.253 1.26 0 .362.152.913 1.116 1.152l.579.145c.478.116.739.362.739.703 0 .398-.304.746-.862.746-.587 0-.942-.399-.95-.804h-.651c0 .623.5 1.217 1.282 1.34v.63h.435zm3.84-.37c1.028 0 1.767-.615 1.767-1.499 0-.608-.355-1.123-.899-1.333a.999.999 0 00.486-.876c0-.667-.55-1.174-1.355-1.174-.811 0-1.355.507-1.355 1.174 0 .398.189.695.479.876-.551.21-.906.725-.906 1.34 0 .877.746 1.493 1.782 1.493zm0-3.035c-.392 0-.696-.268-.696-.615 0-.355.304-.645.695-.645.391 0 .688.29.688.645 0 .355-.297.615-.688.615zm0 2.442c-.631 0-1.116-.42-1.116-.957 0-.55.507-.956 1.115-.956.594 0 1.101.399 1.101.964 0 .528-.449.949-1.1.949zm2.542 1.673c.55-.471.833-1.246.753-2.08h-.637c.094.885-.145 1.37-.55 1.95l.434.13zm3.303-1.08c1.362 0 1.717-1.108 1.717-2.44 0-1.348-.355-2.442-1.717-2.442s-1.717 1.094-1.717 2.441c0 1.333.355 2.442 1.717 2.442zm0-.593c-.87 0-1.08-.862-1.08-1.848 0-1 .21-1.84 1.08-1.84.87 0 1.087.84 1.087 1.84 0 .986-.218 1.848-1.087 1.848zm4.288.594c1.362 0 1.717-1.109 1.717-2.442 0-1.347-.355-2.44-1.717-2.44s-1.716 1.093-1.716 2.44c0 1.333.354 2.442 1.716 2.442zm0-.594c-.869 0-1.079-.862-1.079-1.848 0-1 .21-1.84 1.08-1.84.869 0 1.086.84 1.086 1.84 0 .986-.217 1.848-1.087 1.848zm4.289.594c1.362 0 1.717-1.109 1.717-2.442 0-1.347-.355-2.44-1.717-2.44s-1.717 1.093-1.717 2.44c0 1.333.355 2.442 1.717 2.442zm0-.594c-.87 0-1.08-.862-1.08-1.848 0-1 .21-1.84 1.08-1.84.869 0 1.086.84 1.086 1.84 0 .986-.217 1.848-1.086 1.848z" fill="#5B7381" fill-rule="nonzero"/>
    <path d="M58.17 42.76l2.018 2.016-2.335.667a.286.286 0 01-.278-.071.283.283 0 01-.072-.278l.667-2.335zm3.84-4.005l2.182 2.182-3.523 3.522-2.182-2.182 3.522-3.522zm1.826-1.825l.208.208 1.774 1.774a.283.283 0 010 .4l-1.226 1.226-2.182-2.183 1.426-1.425z" fill="#000"/>
    <path d="M27.998 61.926v-.601c.876-.051 1.405-.667 1.405-1.333 0-.616-.442-1.05-1.239-1.24l-.58-.137c-.564-.137-.615-.449-.615-.608 0-.406.355-.696.826-.696.478 0 .811.312.804.747h.652c.007-.718-.507-1.232-1.253-1.312v-.565h-.435v.573c-.688.094-1.253.565-1.253 1.26 0 .362.152.913 1.115 1.152l.58.145c.478.116.739.362.739.702 0 .399-.304.747-.862.747-.587 0-.942-.399-.95-.805h-.651c0 .623.5 1.217 1.282 1.34v.63h.435zm5.056-.457v-.608h-1.92l1.304-1.565c.312-.37.55-.855.55-1.224 0-.84-.593-1.398-1.484-1.398-.812 0-1.377.478-1.47 1.195l.564.123c.037-.427.391-.717.906-.717.514 0 .855.319.855.797 0 .217-.203.601-.5.963l-1.782 2.152v.282h2.977zm2.564.087c1.036 0 1.68-.768 1.68-1.572 0-.825-.658-1.564-1.622-1.564-.507 0-.912.268-1.13.601-.05-.927.5-1.746 1.232-1.746.355 0 .702.152.898.594l.572-.232c-.318-.767-.912-.963-1.456-.963-1.5 0-1.934 1.463-1.934 2.579 0 1.5.601 2.303 1.76 2.303zm-.036-.6c-.58-.015-1.028-.45-1.028-1.03.028-.536.514-.912 1.1-.912.566.021.986.427.986.956 0 .55-.45.985-1.058.985zm3.144.513l2.572-4.686v-.051H38.06v.601h2.202L37.98 61.47h.746zm6.346.087c.376 0 .92-.188 1.122-.615v.528h.63v-3.382h-.63v1.861c-.007.732-.572 1.014-1.043 1.014-.47 0-.811-.362-.811-.934v-1.941h-.63v1.955c-.007.95.514 1.514 1.362 1.514zm3.477-.087v-1.832c0-.732.565-1.014 1.036-1.014.47 0 .818.362.818.927v1.92h.63v-1.956c.008-.95-.521-1.514-1.361-1.514-.37 0-.92.188-1.123.6v-.513h-.63v3.382h.63zm5.005.087c.486 0 .978-.231 1.203-.615v.528h.63v-5.222h-.63v2.368c-.225-.398-.703-.615-1.21-.615-.927 0-1.688.702-1.688 1.774 0 1.065.768 1.782 1.695 1.782zm.051-.594c-.616 0-1.108-.521-1.108-1.195 0-.68.492-1.173 1.108-1.173.558 0 1.152.441 1.152 1.173 0 .724-.543 1.195-1.152 1.195zm4.39.594c.652 0 1.26-.318 1.557-.905l-.55-.217c-.189.34-.573.528-.985.528-.58 0-1.015-.311-1.109-.912h2.753c.007-.095.014-.189.014-.283 0-1.072-.717-1.767-1.68-1.767-.964 0-1.739.695-1.739 1.767s.775 1.79 1.739 1.79zm1.05-2.05h-2.13c.102-.608.508-.912 1.08-.912.558 0 .97.333 1.05.912zm2.123 1.963v-1.238c0-.891.268-1.623.941-1.623.13 0 .312.029.493.116l.101-.594c-.101-.065-.347-.13-.586-.13-.45 0-.775.26-.95.854v-.767h-.637v3.382h.638zM28.244 72.335v-5.223h-.63v5.223h.63zm2.528.087c.543 0 1.014-.282 1.239-.688v.601h.63v-3.383h-.63v.53c-.225-.4-.703-.617-1.21-.617-.956 0-1.688.776-1.688 1.775 0 1.036.775 1.782 1.66 1.782zm.094-.594c-.623 0-1.115-.543-1.115-1.188 0-.637.492-1.18 1.1-1.18.573 0 1.16.485 1.16 1.18 0 .688-.543 1.188-1.145 1.188zm3.869.594c.702 0 1.31-.398 1.31-1.028 0-.384-.18-.804-.883-.978l-.5-.123c-.217-.051-.434-.174-.434-.406 0-.26.217-.471.543-.471.268 0 .536.174.543.435h.609c0-.681-.594-.986-1.167-.986-.68 0-1.159.442-1.159 1 0 .543.326.819.891.97l.464.11c.268.057.464.188.464.441 0 .276-.254.486-.681.486-.413 0-.667-.24-.674-.53h-.587c.03.696.652 1.08 1.26 1.08zm3.057-.087v-2.84h.731v-.543h-.731v-1.275h-.63v1.275h-.61v.544h.61v2.84h.63zm3.89 0v-1.832c0-.718.478-1.03.956-1.03.449 0 .76.37.76.943v1.92h.63V70.61l.008.03c-.058-.653.304-1.174.905-1.167.493 0 .804.377.804.942v1.92h.63v-1.957c0-.949-.463-1.514-1.31-1.514-.341 0-.877.11-1.181.718-.196-.457-.623-.718-1.116-.718-.478 0-.913.24-1.086.602v-.515h-.63v3.383h.63zm7.28.087c.963 0 1.774-.71 1.774-1.782s-.81-1.775-1.774-1.775-1.768.703-1.768 1.775.804 1.782 1.768 1.782zm0-.594c-.616 0-1.13-.485-1.13-1.188 0-.695.514-1.18 1.13-1.18.623 0 1.144.485 1.144 1.18 0 .703-.521 1.188-1.144 1.188zm3.281.507v-1.832c0-.732.565-1.015 1.036-1.015.47 0 .819.363.819.928v1.92h.63v-1.957c.007-.949-.522-1.514-1.362-1.514-.37 0-.92.189-1.123.602v-.515h-.63v3.383h.63zm4.383 0v-2.84h.731v-.543h-.731v-1.275h-.63v1.275h-.609v.544h.609v2.84h.63zm2.064 0v-1.832c0-.732.565-1.015 1.036-1.015.471 0 .819.363.819.928v1.92h.63v-1.957c.007-.949-.522-1.514-1.362-1.514-.37 0-.92.189-1.123.602v-2.355h-.63v5.223h.63z" fill="#5B7381" fill-rule="nonzero"/>
    <path d="M33.003 34.479c1.942 0 3.347-1.304 3.347-3.231 0-1.84-1.275-3.028-3.086-3.028a3.72 3.72 0 00-2.057.652l.536-2.84h3.984V24.83h-5.013l-.826 4.723.783.652c.724-.536 1.535-.87 2.318-.87 1.159 0 2.1.754 2.1 1.942s-.912 2.014-2.144 2.014c-1.13 0-1.941-.667-2.318-1.536l-1.057.58c.594 1.23 1.796 2.144 3.433 2.144zm4.868 2.158c1.101-.941 1.666-2.492 1.507-4.158h-1.275c.188 1.768-.29 2.738-1.101 3.897l.87.261zm6.838-2.158c2.058 0 3.536-1.232 3.536-3 0-1.216-.71-2.245-1.797-2.665.58-.362.97-.956.97-1.753 0-1.333-1.1-2.347-2.709-2.347-1.622 0-2.709 1.014-2.709 2.347 0 .797.377 1.39.956 1.753-1.1.42-1.81 1.449-1.81 2.68 0 1.753 1.492 2.985 3.563 2.985zm0-6.07c-.782 0-1.39-.537-1.39-1.232 0-.71.608-1.29 1.39-1.29.783 0 1.377.58 1.377 1.29 0 .71-.594 1.231-1.377 1.231zm0 4.882c-1.26 0-2.23-.84-2.23-1.913 0-1.1 1.013-1.912 2.23-1.912 1.188 0 2.203.797 2.203 1.927 0 1.057-.899 1.898-2.203 1.898zm7.91 1.014v-9.591h-.043l-3.23 1.449v1.217l2.013-.826v7.75h1.26zm8.085 0v-1.217h-3.84l2.609-3.13c.623-.739 1.1-1.71 1.1-2.448 0-1.68-1.187-2.796-2.97-2.796-1.622 0-2.752.956-2.94 2.39l1.13.247c.072-.855.782-1.435 1.81-1.435 1.03 0 1.71.638 1.71 1.594 0 .435-.405 1.202-1 1.927L54.75 33.74v.565h5.954zM25.4 31.971v-.902c1.314-.076 2.108-1 2.108-2 0-.923-.663-1.575-1.858-1.857l-.87-.207c-.847-.206-.923-.673-.923-.912 0-.609.532-1.044 1.238-1.044.718 0 1.217.468 1.206 1.12h.978c.011-1.076-.76-1.848-1.88-1.967v-.848h-.651v.859c-1.033.141-1.88.847-1.88 1.89 0 .544.228 1.37 1.673 1.728l.87.217c.717.174 1.108.544 1.108 1.054 0 .598-.457 1.12-1.293 1.12-.88 0-1.413-.598-1.424-1.207h-.978c0 .935.75 1.826 1.924 2.01v.946h.652z" fill="#F28C24" fill-rule="nonzero"/>
    <path stroke="#5B7381" stroke-linecap="square" d="M12.677 50.604h62.781"/>
    <path d="M13.913 99.5v-4.795h-.022l-1.615.724v.608l1.007-.412V99.5h.63zm1.731 0l2.572-4.687v-.05h-3.238v.6h2.202L14.898 99.5h.746z" fill="#5B7381" fill-rule="nonzero"/>
    <circle fill="#000" cx="22.939" cy="92.256" r="1.207"/>
  </g>
</svg>
