<svg width="246" height="67" viewBox="0 0 246 67" xmlns="http://www.w3.org/2000/svg">
  <g transform="translate(1.814 1)" fill="none" fill-rule="evenodd">
    <path fill="#ABB0B2" d="M12.578 62.888h1v1.143h-1zm24.011 0h1v1.143h-1zm24.298 0h1v1.143h-1zm24.011 0h1v1.143h-1zm24.298 0h1v1.143h-1zm24.012 0h1v1.143h-1zm24.297 0h1v1.143h-1zm24.012 0h1v1.143h-1zm24.297 0h1v1.143h-1zm24.012 0h1v1.143h-1z"/>
    <path fill="#F28C24" d="M3.43 30.872h18.866v20.296H3.43z"/>
    <path fill="#008945" d="M3.43.858h18.866v29.729H3.43z"/>
    <path fill="#F28C24" d="M75.465 30.872h18.866v29.729H75.465z"/>
    <path fill="#008945" d="M75.465 9.433h18.866v21.153H75.465z"/>
    <path fill="#F28C24" d="M147.5 30.872h18.866v23.154H147.5z"/>
    <path fill="#008945" d="M147.5 0h18.866v30.586H147.5z"/>
    <path fill="#F28C24" d="M27.442 30.872h18.866v20.296H27.442z"/>
    <path fill="#008945" d="M27.442 9.433h18.866v21.153H27.442z"/>
    <path fill="#F28C24" d="M99.477 30.872h18.866v23.154H99.477z"/>
    <path fill="#008945" d="M99.477 9.433h18.866v21.153H99.477z"/>
    <path fill="#F28C24" d="M171.512 30.872h18.866v18.009h-18.866z"/>
    <path fill="#008945" d="M171.512 9.433h18.866v21.153h-18.866z"/>
    <path fill="#F28C24" d="M51.454 30.872H70.32v18.009H51.454z"/>
    <path fill="#008945" d="M51.454 7.432H70.32v23.154H51.454z"/>
    <path fill="#F28C24" d="M123.489 30.872h18.866v20.296h-18.866z"/>
    <path fill="#008945" d="M123.489 7.432h18.866v23.154h-18.866z"/>
    <path fill="#F28C24" d="M195.524 30.872h18.866v20.296h-18.866z"/>
    <path fill="#008945" d="M195.524 4.002h18.866v26.584h-18.866z"/>
    <path fill="#F28C24" d="M219.535 30.872h18.866v13.721h-18.866z"/>
    <path fill="#008945" d="M219.535 20.867h18.866v9.719h-18.866z"/>
    <path stroke="#1D272D" stroke-linecap="square" d="M0 30.729h241.832"/>
    <path stroke="#1D272D" d="M12.578 21.153l24.297 8.576 24.012-4.288 24.011 14.007 24.012-6.575 24.012-5.145 24.011-4.574 24.012 4.288 24.012-3.144 24.011 10.576"/>
    <circle fill="#1D272D" cx="12.578" cy="21.153" r="1"/>
    <circle fill="#1D272D" cx="36.875" cy="29.729" r="1"/>
    <circle fill="#1D272D" cx="60.887" cy="25.441" r="1"/>
    <circle fill="#1D272D" cx="84.898" cy="39.448" r="1"/>
    <circle fill="#1D272D" cx="108.91" cy="32.873" r="1"/>
    <circle fill="#1D272D" cx="132.922" cy="27.728" r="1"/>
    <circle fill="#1D272D" cx="156.933" cy="23.154" r="1"/>
    <circle fill="#1D272D" cx="180.945" cy="27.442" r="1"/>
    <circle fill="#1D272D" cx="204.957" cy="24.298" r="1"/>
    <circle fill="#1D272D" cx="228.968" cy="34.874" r="1"/>
  </g>
</svg>
