<svg width="249" height="113" viewBox="0 0 249 113" xmlns="http://www.w3.org/2000/svg" xmlns:xlink="http://www.w3.org/1999/xlink">
  <defs>
    <path id="da74de0d8e3848839bb671f5b530d2b4a" d="M.506.557h55.5v57.026H.507z"/>
    <path id="da74de0d8e3848839bb671f5b530d2b4c" d="M0 .062h110.795v110.795H0z"/>
  </defs>
  <g fill="none" fill-rule="evenodd">
    <path d="M247.418 55.966c0 30.633-24.833 55.465-55.466 55.465-30.633 0-55.465-24.832-55.465-55.465C136.487 25.333 161.32.5 191.952.5c30.633 0 55.466 24.833 55.466 55.466" fill="#FF7D3E"/>
    <path d="M247.234 60.505c-1.889 23.326-18.21 42.573-40.025 48.8l-15.325-54.092 55.35 5.292z" fill="#FED737"/>
    <g transform="translate(191.41 2.727)">
      <mask id="da74de0d8e3848839bb671f5b530d2b4b" fill="#fff">
        <use xlink:href="#da74de0d8e3848839bb671f5b530d2b4a"/>
      </mask>
      <path d="M17.939.557c22.11 7.298 38.068 28.127 38.068 52.682 0 1.462-.057 2.91-.168 4.344L.506 52.498 17.939.557z" fill="#099CD8" mask="url(#da74de0d8e3848839bb671f5b530d2b4b)"/>
    </g>
    <path d="M194.446.555a55.26 55.26 0 0115.129 2.803L191.9 55.232 194.446.555z" fill="#6ACADB"/>
    <path d="M159.962 10.649C169.002 4.256 180.038.5 191.952.5l-.065 54.702-31.925-44.553z" fill="#DD4999"/>
    <path d="M191.952.5c.778 0 1.72.031 2.49.063l-2.548 54.647.058-54.71z" fill="#0B4C84"/>
    <g transform="translate(.518 .48)">
      <mask id="da74de0d8e3848839bb671f5b530d2b4d" fill="#fff">
        <use xlink:href="#da74de0d8e3848839bb671f5b530d2b4c"/>
      </mask>
      <path d="M110.795 55.46c0 30.595-24.802 55.397-55.398 55.397C24.802 110.857 0 86.055 0 55.46 0 24.864 24.802.062 55.397.062c30.596 0 55.398 24.802 55.398 55.397" fill="#FF7D3E" mask="url(#da74de0d8e3848839bb671f5b530d2b4d)"/>
    </g>
    <path d="M60.192.704c13.593 1.037 25.813 6.98 34.896 16.062l-38.814 39.38L60.192.705z" fill="#FED737"/>
    <path d="M60.01.69a56.474 56.474 0 00-4.094-.148l-.034 55.8L60.01.69z" fill="#0B4C84"/>
  </g>
</svg>
