<svg width="249" height="96" viewBox="0 0 249 96" xmlns="http://www.w3.org/2000/svg">
  <g fill="none" fill-rule="evenodd">
    <path d="M223.764 5.27v-.54c.784-.045 1.257-.596 1.257-1.192 0-.551-.395-.94-1.108-1.109l-.519-.123c-.505-.123-.55-.402-.55-.544 0-.363.317-.622.738-.622.428 0 .726.278.72.667h.583c.007-.641-.454-1.102-1.121-1.173V.13h-.389v.512c-.616.084-1.121.505-1.121 1.127 0 .324.136.817.998 1.03l.518.13c.428.104.661.324.661.63 0 .356-.272.667-.77.667-.526 0-.843-.357-.85-.72h-.583c0 .558.447 1.089 1.147 1.2v.563h.389zm3.435-.331c.92 0 1.581-.551 1.581-1.342 0-.544-.317-1.005-.803-1.193a.894.894 0 00.434-.784c0-.596-.493-1.05-1.212-1.05-.726 0-1.212.454-1.212 1.05 0 .357.168.622.428.784-.493.188-.81.649-.81 1.2 0 .784.667 1.335 1.594 1.335zm0-2.716c-.35 0-.622-.24-.622-.55 0-.318.272-.578.622-.578s.616.26.616.577c0 .318-.266.551-.616.551zm0 2.184c-.564 0-.998-.376-.998-.855 0-.493.453-.856.998-.856.531 0 .985.357.985.862 0 .473-.402.85-.985.85zm3.538.454V.57h-.019l-1.445.647v.545l.9-.37V4.86h.564zm2.567.078c.927 0 1.504-.687 1.504-1.407 0-.739-.59-1.4-1.452-1.4-.454 0-.817.24-1.011.538-.046-.83.447-1.562 1.102-1.562.317 0 .628.136.803.532l.512-.208c-.285-.687-.816-.862-1.302-.862-1.342 0-1.73 1.31-1.73 2.308 0 1.341.537 2.06 1.574 2.06zm-.032-.538c-.519-.013-.92-.402-.92-.92.025-.48.46-.817.984-.817.506.02.882.382.882.855 0 .493-.402.882-.946.882zm2.268 1.503c.492-.421.745-1.115.674-1.86h-.57c.084.79-.13 1.225-.493 1.744l.389.116zm2.08-1.043l2.301-4.193V.622h-2.897v.538h1.97l-2.041 3.7h.667zm4.11.078c.868 0 1.496-.584 1.496-1.446 0-.823-.57-1.354-1.38-1.354-.33 0-.668.116-.92.291l.24-1.27h1.782V.622h-2.243l-.37 2.113.35.292c.325-.24.688-.39 1.038-.39.518 0 .94.338.94.87 0 .53-.409.9-.96.9-.505 0-.868-.298-1.037-.687l-.473.26c.266.55.804.959 1.536.959zm4.6-.078v-.875h.604v-.532h-.603V.622h-.097l-2.632 3.24v.124h2.165v.875h.564zm-.563-1.407h-1.218l1.218-1.458v1.458z" fill="#0047BB" fill-rule="nonzero"/>
    <path d="M.934 82.842L3.73 78.3l2.797-4.605 2.798-4.755 2.797 6.759 2.798-6.598 2.797 4.594 2.797-13.153 2.798-1.694 2.797-.7 2.797 5.383 2.798 1.011 2.797 1.225L37.3 62.21l2.798-3.383 2.797-2.862 2.798.202 2.797-4.108 2.797-3.874 2.798 5.049 2.797 2.18 2.797.13 2.798 3.767 2.797 4.44 2.036-3.047 3.66 1.642 2.696-2.799 2.798-4.403 2.932-2.465 2.662 1.42 2.798-5.51 2.797 3.323 2.876-3.727 2.942-2.903 2.574-5.374h3.05l2.545 5.81 2.797 5.862 3.172 2.52 1.627-1.438 2.936-1.639 3.455 1.656 2.797-9.398 2.797.82 2.798 1.18 2.797-3.544 2.798-4.466 2.797 1.869 2.797 1.469 2.798-4.726 2.797 7.198 2.797 3.318 2.798 2.42 2.797 2.858 2.798-.3 2.797 2.176 2.797-9.753 2.798-3.082 2.797 2.013 2.797-2.237 2.798 2.386 2.797-7.713 2.036 5.826 2.798-2.623 2.797-3.62L182 33.034l2.798 4.132 2.797-7.311 3.559-4.572 2.797-1.012 2.797 4.763 2.798-6.108 2.797 5.443h5.597s1.399 5.754 2.797 5.754c1.399 0 2.798-5.754 2.798-5.754h2.797l2.797 5.754 2.798-.404 2.797-.497 2.036 2.12 2.798-1.803 2.797-3.137 3.846-10.233 2.51-6.306 2.797-.901 2.798 5.755 2.797.34v68.032H.934v-4.247z" fill="#0047BB"/>
    <g fill-rule="nonzero">
      <path d="M2.207 94.438c1.006 0 1.303-.992 1.303-1.74 0-.89-.404-1.536-1.186-1.536-.695 0-1.128.505-1.128 1.045 0 .554.443 1.055 1.094 1.055a.895.895 0 00.758-.39c.024.623-.345 1.167-.831 1.167a.63.63 0 01-.603-.398l-.384.155c.214.516.613.642.977.642zm.093-1.58c-.38-.01-.661-.286-.661-.641 0-.37.3-.647.71-.647.388.01.69.292.69.676-.015.36-.346.612-.74.612zm2.92 1.58c.915 0 1.153-.744 1.153-1.638 0-.904-.238-1.638-1.152-1.638-.914 0-1.152.734-1.152 1.638 0 .894.238 1.638 1.152 1.638zm0-.399c-.582 0-.723-.578-.723-1.239 0-.67.14-1.235.724-1.235.583 0 .729.564.729 1.235 0 .661-.146 1.24-.73 1.24zm3.452-.588v-.408H6.985v.408h1.687zm2.095.929c.953 0 1.512-.72 1.512-1.667 0-.953-.56-1.682-1.512-1.682H9.469v3.349h1.298zm0-.409h-.855V91.44h.855c.705 0 1.07.559 1.07 1.274 0 .714-.365 1.258-1.07 1.258zm3.096.467c.365 0 .68-.19.832-.462v.404h.422v-2.27h-.422v.355c-.151-.268-.472-.414-.812-.414-.642 0-1.133.52-1.133 1.191 0 .695.52 1.196 1.113 1.196zm.064-.399c-.418 0-.749-.364-.749-.797 0-.427.33-.792.739-.792.384 0 .778.326.778.792a.782.782 0 01-.768.797zm2.527 1.444l1.41-3.373h-.457l-.695 1.672-.686-1.672h-.457l.91 2.207-.472 1.166h.447z" fill="#5B7381"/>
      <path d="M20.58 94.19v-.758h.76v-.486h-.76v-.754h-.485v.754h-.754v.486h.754v.758h.486zm2.392.564v-.452c.52-.049.963-.37.963-.919 0-.515-.408-.763-.875-.894l-.335-.097c-.292-.078-.316-.229-.316-.302 0-.19.155-.335.388-.335.234 0 .38.155.375.384h.67c.005-.51-.345-.87-.87-.933v-.452h-.345v.452c-.515.068-.894.413-.894.894 0 .277.121.68.802.865l.365.107c.277.083.36.214.36.345 0 .195-.151.34-.414.34-.296 0-.467-.165-.467-.403h-.67c0 .491.36.875.918.943v.452l.345.005zm2.616-.316c.714 0 1.176-.476 1.176-1.084 0-.554-.428-1.02-1.07-1.02a.916.916 0 00-.69.276c.02-.505.302-.865.705-.865.204 0 .403.107.5.326l.516-.287c-.195-.433-.608-.632-1.02-.632-.895 0-1.347.802-1.347 1.745 0 .953.486 1.541 1.23 1.541zm0-.593c-.312-.005-.535-.224-.535-.505.01-.273.238-.467.554-.467.301.005.515.2.515.476 0 .282-.223.496-.534.496zm1.715 1.327c.345-.306.647-.812.627-1.424h-.602c.029.525-.098.87-.39 1.269l.365.155zm3.296-.792v-.598H29.47l.749-.86c.204-.229.35-.501.35-.807 0-.579-.413-.963-1.05-.963s-1.006.39-1.084.958l.578.097c.04-.277.2-.462.482-.462.247 0 .422.15.422.365 0 .107-.087.272-.218.432l-1.245 1.493v.345H30.6zm1.55.058c.895 0 1.347-.817 1.347-1.76 0-.904-.491-1.526-1.235-1.526-.71 0-1.176.462-1.176 1.07 0 .554.428 1.025 1.074 1.025a.947.947 0 00.69-.267c-.024.5-.306.865-.704.865a.543.543 0 01-.506-.326l-.515.287c.194.433.608.632 1.026.632zm.098-1.73c-.302-.005-.515-.205-.515-.482 0-.281.218-.48.534-.48.311.004.53.208.53.49-.005.277-.233.472-.55.472zm2.785 1.73c.894 0 1.346-.817 1.346-1.76 0-.904-.49-1.526-1.234-1.526-.71 0-1.177.462-1.177 1.07 0 .554.428 1.025 1.075 1.025a.947.947 0 00.69-.267c-.024.5-.306.865-.705.865a.543.543 0 01-.505-.326l-.516.287c.195.433.608.632 1.026.632zm.097-1.73c-.301-.005-.515-.205-.515-.482 0-.281.219-.48.535-.48.31.004.53.208.53.49-.005.277-.234.472-.55.472z" fill="#008945"/>
    </g>
    <g fill-rule="nonzero">
      <path d="M221.363 94.38v-3.218h-.015l-1.084.486v.408l.676-.277v2.6h.423zm2.479-.929v-.408h-1.687v.408h1.687zm2.095.929c.952 0 1.511-.72 1.511-1.667 0-.953-.559-1.682-1.511-1.682h-1.298v3.349h1.298zm0-.409h-.856V91.44h.856c.704 0 1.069.559 1.069 1.274 0 .714-.365 1.258-1.07 1.258zm3.096.467c.365 0 .68-.19.831-.462v.404h.423v-2.27h-.423v.355c-.15-.268-.471-.414-.812-.414-.641 0-1.132.52-1.132 1.191 0 .695.52 1.196 1.113 1.196zm.063-.399c-.418 0-.748-.364-.748-.797 0-.427.33-.792.738-.792.384 0 .778.326.778.792a.782.782 0 01-.768.797zm2.528 1.444l1.41-3.373h-.458l-.695 1.672-.685-1.672h-.457l.91 2.207-.472 1.166h.447z" fill="#5B7381"/>
      <path d="M236.334 93.5v-.564h-1.711v.564h1.71zm1.75 1.254v-.452c.52-.049.962-.37.962-.919 0-.515-.408-.763-.875-.894l-.335-.097c-.292-.078-.316-.229-.316-.302 0-.19.155-.335.389-.335.233 0 .379.155.374.384h.67c.006-.51-.344-.87-.87-.933v-.452h-.344v.452c-.516.068-.895.413-.895.894 0 .277.122.68.802.865l.365.107c.277.083.36.214.36.345 0 .195-.151.34-.414.34-.296 0-.466-.165-.466-.403h-.671c0 .491.36.875.919.943v.452l.345.005zm2.206-.374l1.425-3.12v-.064h-2.304v.593h1.332l-1.191 2.59h.738zm2.64.058c.69 0 1.176-.408 1.176-.982a.822.822 0 00-.564-.792c.258-.131.418-.365.418-.632.01-.54-.427-.88-.986-.88-.409 0-.74.185-.963.447l.35.399a.718.718 0 01.54-.258c.233 0 .398.122.408.316.015.224-.185.409-.53.409h-.18v.49h.307c.325 0 .549.185.549.453 0 .257-.219.447-.554.447-.234 0-.418-.117-.569-.321l-.447.345c.228.365.593.56 1.045.56zm2.698 0c.894 0 1.346-.817 1.346-1.76 0-.904-.49-1.526-1.235-1.526-.71 0-1.176.462-1.176 1.07 0 .554.428 1.025 1.074 1.025a.947.947 0 00.69-.267c-.024.5-.306.865-.704.865a.543.543 0 01-.506-.326l-.515.287c.194.433.608.632 1.026.632zm.097-1.73c-.302-.005-.515-.205-.515-.482 0-.281.218-.48.534-.48.311.004.53.208.53.49-.005.277-.233.472-.55.472z" fill="#DF2A33"/>
    </g>
  </g>
</svg>