<svg t="1598802299723" class="icon" viewBox="0 0 1024 1024" version="1.1" xmlns="http://www.w3.org/2000/svg" p-id="1116" width="200" height="200"><path d="M395.3152 177.4592s-16.896 66.6624 43.264 92.16 69.9392 123.5456 44.4416 167.9872c-25.4976 44.4416-64.5632 109.9776 56.2176 131.3792 56.2176 2.0992 190.7712 161.4336-27.0336 292.352-102.0928-8.3456-276.6336-67.072-331.008-232.2944-23.04-64.3072-68.352-328.0384 214.1184-451.584z" fill="#88def9" p-id="1117"></path><path d="M512.2048 157.5936s-58.9312 33.5872-26.5728 76.7488c32.3584 43.1616 65.6896 118.528 35.2768 199.936-20.5824 50.0736-27.8016 93.184 39.5264 103.9872 33.024 0.9728 174.4384 95.4368 65.4848 304.2816 74.0864-26.4704 258.8672-123.648 227.8912-417.536-17.8688-90.0096-147.712-263.1168-341.6064-267.4176z" fill="#88def9" p-id="1118"></path><path d="M512.2048 881.7664c-205.312 0-372.3264-167.0144-372.3264-372.3264 0-157.7472 99.9424-298.9568 248.6784-351.2832 10.7008-3.7376 22.3744 1.8432 26.112 12.544a20.48 20.48 0 0 1-12.544 26.112c-132.352 46.592-221.2864 172.2368-221.2864 312.6784 0 182.7328 148.6848 331.3664 331.3664 331.3664 11.3152 0 20.48 9.1648 20.48 20.48s-9.216 20.4288-20.48 20.4288zM625.92 862.976c-8.4992 0-16.4864-5.376-19.4048-13.8752-3.6352-10.7008 2.048-22.3232 12.7488-26.0096 134.144-45.7728 224.256-171.8784 224.256-313.7024 0-182.7328-148.6848-331.3664-331.3664-331.3664-11.3152 0-20.48-9.1648-20.48-20.48s9.1648-20.48 20.48-20.48c205.312 0 372.3264 167.0144 372.3264 372.3264 0 159.3344-101.2736 301.0048-252.0064 352.4608-2.1504 0.8192-4.352 1.1264-6.5536 1.1264z" fill="#55524F" p-id="1119"></path><path d="M378.88 802.6624c-29.184 0-61.4912-1.6896-97.0752-5.12a20.5056 20.5056 0 0 1-18.432-22.3744c1.0752-11.264 11.1104-19.5584 22.3744-18.432 155.0848 14.9504 217.5488-7.168 242.688-28.3136 12.8512-10.8032 19.712-24.4224 20.992-41.6256 3.1744-42.24-41.216-54.528-109.3632-68.4544-40.0384-8.192-77.9264-15.9232-97.6896-37.5808-33.3312-36.4032-6.4-69.12 19.6096-100.7104 15.104-18.3808 32.2048-39.168 46.848-66.7648 6.7584-12.6976 13.6192-30.0544 8.192-40.6528-9.2672-18.0736-55.7056-24.5248-83.4048-28.3648-64.7168-8.96-73.8304-71.0656-69.632-102.6048a20.5056 20.5056 0 0 1 22.9888-17.6128c11.2128 1.4848 19.0464 11.7248 17.6128 22.9376-1.0752 8.6016-4.3008 51.3024 34.6624 56.7296 42.4448 5.888 95.2832 13.2096 114.2784 50.2784 10.8032 21.0944 7.936 47.5136-8.4992 78.4896-16.5376 31.232-35.8912 54.7328-51.4048 73.6256-29.1328 35.3792-28.416 38.9632-20.992 47.0528 10.8032 11.8272 45.312 18.8928 75.7248 25.088 62.5152 12.8 148.0704 30.3104 141.9776 111.6672-2.1504 28.3648-14.08 51.8656-35.4816 69.888-34.0992 28.672-92.0576 42.8544-175.9744 42.8544zM782.4384 655.4112c-31.2832 0-63.0784-7.8848-87.3984-26.6752-22.016-17.0496-46.3872-49.6128-37.2736-107.8784 9.3184-59.4944-26.1632-75.6736-63.6928-92.8256-19.712-9.0112-38.3488-17.5104-46.9504-33.792-23.6032-44.5952 18.3808-129.792 35.4816-154.112 8.1408-11.5712 3.2768-41.5744-2.56-58.2144a20.48 20.48 0 0 1 12.544-26.112 20.48 20.48 0 0 1 26.112 12.544c2.2016 6.2464 20.8384 62.1056-2.56 95.3856-19.712 28.0064-43.2128 91.648-32.768 111.36 2.304 4.0448 17.664 11.0592 27.8016 15.7184 37.888 17.3056 101.2736 46.2848 87.1424 136.3968-4.864 30.9248 2.5088 54.1696 21.8624 69.1712 31.3344 24.2176 83.8144 21.9136 117.248 7.3728 10.3936-4.5056 22.4256 0.256 26.9312 10.6496 4.5056 10.3936-0.256 22.4256-10.6496 26.9312-20.48 8.8576-45.7216 14.08-71.2704 14.08z" fill="#55524F" p-id="1120"></path></svg>